<!-- <svg width="200" height="200" viewBox="0 0 200 200" xmlns="http://www.w3.org/2000/svg"><g fill="none" fill-rule="evenodd"><path fill="#FFF" d="M99 52h84v34H99z"/><path d="M23 163c-7.398 0-13.843-4.027-17.303-10A19.886 19.886 0 0 0 3 163c0 11.046 8.954 20 20 20h20v-20H23z" fill="#3ECC5F"/><path d="M112.98 57.376L183 53V43c0-11.046-8.954-20-20-20H73l-2.5-4.33c-1.112-1.925-3.889-1.925-5 0L63 23l-2.5-4.33c-1.111-1.925-3.889-1.925-5 0L53 23l-2.5-4.33c-1.111-1.925-3.889-1.925-5 0L43 23c-.022 0-.042.003-.065.003l-4.142-4.141c-1.57-1.571-4.252-.853-4.828 1.294l-1.369 5.104-5.192-1.392c-2.148-.575-4.111 1.389-3.535 3.536l1.39 5.193-5.102 1.367c-2.148.576-2.867 3.259-1.296 4.83l4.142 4.142c0 .021-.003.042-.003.064l-4.33 2.5c-1.925 1.111-1.925 3.889 0 5L23 53l-4.33 2.5c-1.925 1.111-1.925 3.889 0 5L23 63l-4.33 2.5c-1.925 1.111-1.925 3.889 0 5L23 73l-4.33 2.5c-1.925 1.111-1.925 3.889 0 5L23 83l-4.33 2.5c-1.925 1.111-1.925 3.889 0 5L23 93l-4.33 2.5c-1.925 1.111-1.925 3.889 0 5L23 103l-4.33 2.5c-1.925 1.111-1.925 3.889 0 5L23 113l-4.33 2.5c-1.925 1.111-1.925 3.889 0 5L23 123l-4.33 2.5c-1.925 1.111-1.925 3.889 0 5L23 133l-4.33 2.5c-1.925 1.111-1.925 3.889 0 5L23 143l-4.33 2.5c-1.925 1.111-1.925 3.889 0 5L23 153l-4.33 2.5c-1.925 1.111-1.925 3.889 0 5L23 163c0 11.046 8.954 20 20 20h120c11.046 0 20-8.954 20-20V83l-70.02-4.376A10.645 10.645 0 0 1 103 68c0-5.621 4.37-10.273 9.98-10.624" fill="#3ECC5F"/><path fill="#3ECC5F" d="M143 183h30v-40h-30z"/><path d="M193 158c-.219 0-.428.037-.639.064-.038-.15-.074-.301-.116-.451A5 5 0 0 0 190.32 148a4.96 4.96 0 0 0-3.016 1.036 26.531 26.531 0 0 0-.335-.336 4.955 4.955 0 0 0 1.011-2.987 5 5 0 0 0-9.599-1.959c-.148-.042-.297-.077-.445-.115.027-.211.064-.42.064-.639a5 5 0 0 0-5-5 5 5 0 0 0-5 5c0 .219.037.428.064.639-.148.038-.297.073-.445.115a4.998 4.998 0 0 0-9.599 1.959c0 1.125.384 2.151 1.011 2.987-3.717 3.632-6.031 8.693-6.031 14.3 0 11.046 8.954 20 20 20 9.339 0 17.16-6.41 19.361-15.064.211.027.42.064.639.064a5 5 0 0 0 5-5 5 5 0 0 0-5-5" fill="#44D860"/><path fill="#3ECC5F" d="M153 123h30v-20h-30z"/><path d="M193 115.5a2.5 2.5 0 1 0 0-5c-.109 0-.214.019-.319.032-.02-.075-.037-.15-.058-.225a2.501 2.501 0 0 0-.963-4.807c-.569 0-1.088.197-1.508.518a6.653 6.653 0 0 0-.168-.168c.314-.417.506-.931.506-1.494a2.5 2.5 0 0 0-4.8-.979A9.987 9.987 0 0 0 183 103c-5.522 0-10 4.478-10 10s4.478 10 10 10c.934 0 1.833-.138 2.69-.377a2.5 2.5 0 0 0 4.8-.979c0-.563-.192-1.077-.506-1.494.057-.055.113-.111.168-.168.42.321.939.518 1.508.518a2.5 2.5 0 0 0 .963-4.807c.021-.074.038-.15.058-.225.105.013.21.032.319.032" fill="#44D860"/><path d="M63 55.5a2.5 2.5 0 0 1-2.5-2.5c0-4.136-3.364-7.5-7.5-7.5s-7.5 3.364-7.5 7.5a2.5 2.5 0 1 1-5 0c0-6.893 5.607-12.5 12.5-12.5S65.5 46.107 65.5 53a2.5 2.5 0 0 1-2.5 2.5" fill="#000"/><path d="M103 183h60c11.046 0 20-8.954 20-20V93h-60c-11.046 0-20 8.954-20 20v70z" fill="#FFFF50"/><path d="M168.02 124h-50.04a1 1 0 1 1 0-2h50.04a1 1 0 1 1 0 2m0 20h-50.04a1 1 0 1 1 0-2h50.04a1 1 0 1 1 0 2m0 20h-50.04a1 1 0 1 1 0-2h50.04a1 1 0 1 1 0 2m0-49.814h-50.04a1 1 0 1 1 0-2h50.04a1 1 0 1 1 0 2m0 19.814h-50.04a1 1 0 1 1 0-2h50.04a1 1 0 1 1 0 2m0 20h-50.04a1 1 0 1 1 0-2h50.04a1 1 0 1 1 0 2M183 61.611c-.012 0-.022-.006-.034-.005-3.09.105-4.552 3.196-5.842 5.923-1.346 2.85-2.387 4.703-4.093 4.647-1.889-.068-2.969-2.202-4.113-4.46-1.314-2.594-2.814-5.536-5.963-5.426-3.046.104-4.513 2.794-5.807 5.167-1.377 2.528-2.314 4.065-4.121 3.994-1.927-.07-2.951-1.805-4.136-3.813-1.321-2.236-2.848-4.75-5.936-4.664-2.994.103-4.465 2.385-5.763 4.4-1.373 2.13-2.335 3.428-4.165 3.351-1.973-.07-2.992-1.51-4.171-3.177-1.324-1.873-2.816-3.993-5.895-3.89-2.928.1-4.399 1.97-5.696 3.618-1.232 1.564-2.194 2.802-4.229 2.724a1 1 0 0 0-.072 2c3.017.101 4.545-1.8 5.872-3.487 1.177-1.496 2.193-2.787 4.193-2.855 1.926-.082 2.829 1.115 4.195 3.045 1.297 1.834 2.769 3.914 5.731 4.021 3.103.104 4.596-2.215 5.918-4.267 1.182-1.834 2.202-3.417 4.15-3.484 1.793-.067 2.769 1.35 4.145 3.681 1.297 2.197 2.766 4.686 5.787 4.796 3.125.108 4.634-2.62 5.949-5.035 1.139-2.088 2.214-4.06 4.119-4.126 1.793-.042 2.728 1.595 4.111 4.33 1.292 2.553 2.757 5.445 5.825 5.556l.169.003c3.064 0 4.518-3.075 5.805-5.794 1.139-2.41 2.217-4.68 4.067-4.773v-2z" fill="#000"/><path fill="#3ECC5F" d="M83 183h40v-40H83z"/><path d="M143 158c-.219 0-.428.037-.639.064-.038-.15-.074-.301-.116-.451A5 5 0 0 0 140.32 148a4.96 4.96 0 0 0-3.016 1.036 26.531 26.531 0 0 0-.335-.336 4.955 4.955 0 0 0 1.011-2.987 5 5 0 0 0-9.599-1.959c-.148-.042-.297-.077-.445-.115.027-.211.064-.42.064-.639a5 5 0 0 0-5-5 5 5 0 0 0-5 5c0 .219.037.428.064.639-.148.038-.297.073-.445.115a4.998 4.998 0 0 0-9.599 1.959c0 1.125.384 2.151 1.011 2.987-3.717 3.632-6.031 8.693-6.031 14.3 0 11.046 8.954 20 20 20 9.339 0 17.16-6.41 19.361-15.064.211.027.42.064.639.064a5 5 0 0 0 5-5 5 5 0 0 0-5-5" fill="#44D860"/><path fill="#3ECC5F" d="M83 123h40v-20H83z"/><path d="M133 115.5a2.5 2.5 0 1 0 0-5c-.109 0-.214.019-.319.032-.02-.075-.037-.15-.058-.225a2.501 2.501 0 0 0-.963-4.807c-.569 0-1.088.197-1.508.518a6.653 6.653 0 0 0-.168-.168c.314-.417.506-.931.506-1.494a2.5 2.5 0 0 0-4.8-.979A9.987 9.987 0 0 0 123 103c-5.522 0-10 4.478-10 10s4.478 10 10 10c.934 0 1.833-.138 2.69-.377a2.5 2.5 0 0 0 4.8-.979c0-.563-.192-1.077-.506-1.494.057-.055.113-.111.168-.168.42.321.939.518 1.508.518a2.5 2.5 0 0 0 .963-4.807c.021-.074.038-.15.058-.225.105.013.21.032.319.032" fill="#44D860"/><path d="M143 41.75c-.16 0-.33-.02-.49-.05a2.52 2.52 0 0 1-.47-.14c-.15-.06-.29-.14-.431-.23-.13-.09-.259-.2-.38-.31-.109-.12-.219-.24-.309-.38s-.17-.28-.231-.43a2.619 2.619 0 0 1-.189-.96c0-.16.02-.33.05-.49.03-.16.08-.31.139-.47.061-.15.141-.29.231-.43.09-.13.2-.26.309-.38.121-.11.25-.22.38-.31.141-.09.281-.17.431-.23.149-.06.31-.11.47-.14.32-.07.65-.07.98 0 .159.03.32.08.47.14.149.06.29.14.43.23.13.09.259.2.38.31.11.12.22.25.31.38.09.14.17.28.23.43.06.16.11.31.14.47.029.16.05.33.05.49 0 .66-.271 1.31-.73 1.77-.121.11-.25.22-.38.31-.14.09-.281.17-.43.23a2.565 2.565 0 0 1-.96.19m20-1.25c-.66 0-1.3-.27-1.771-.73a3.802 3.802 0 0 1-.309-.38c-.09-.14-.17-.28-.231-.43a2.619 2.619 0 0 1-.189-.96c0-.66.27-1.3.729-1.77.121-.11.25-.22.38-.31.141-.09.281-.17.431-.23.149-.06.31-.11.47-.14.32-.07.66-.07.98 0 .159.03.32.08.47.14.149.06.29.14.43.23.13.09.259.2.38.31.459.47.73 1.11.73 1.77 0 .16-.021.33-.05.49-.03.16-.08.32-.14.47-.07.15-.14.29-.23.43-.09.13-.2.26-.31.38-.121.11-.25.22-.38.31-.14.09-.281.17-.43.23a2.565 2.565 0 0 1-.96.19" fill="#000"/></g></svg> -->

<svg width="70" height="40" viewBox="0 0 70 40" fill="none" xmlns="http://www.w3.org/2000/svg">
<g clip-path="url(#clip0_9817_38201)">
<path d="M28.9151 12.0211C28.3047 12.0211 27.7247 12.1554 27.193 12.4167C26.9316 12.5456 26.6899 12.7032 26.4697 12.8894C25.8127 11.8833 24.8854 11.0526 23.7612 10.503L9.36447 3.48728C9.11384 3.36196 8.85784 3.24918 8.5929 3.15788C10.0662 2.4794 11.8313 2.41316 13.4765 3.21696L27.0175 9.82276C28.0451 10.324 28.874 11.1081 29.4307 12.0551C29.2624 12.0336 29.0906 12.0229 28.9151 12.0229V12.0211Z" fill="#8BB7F4"/>
<path d="M35.4851 12.3183V16.5539C35.1987 16.6201 34.923 16.7007 34.6527 16.7974C33.9975 17.0301 33.3942 17.3487 32.8535 17.7515V13.9975C32.8535 11.3928 31.3695 9.0154 29.0279 7.87326L14.6276 0.853924C14.3788 0.728611 14.1228 0.619409 13.8596 0.526319C15.3329 -0.152163 17.0981 -0.2184 18.7433 0.585395L32.2825 7.1912C34.2445 8.14537 35.4869 10.1396 35.4869 12.3183H35.4851Z" fill="#8BB7F4"/>
<path d="M21.7544 12.4561L8.21339 5.84854C4.41998 3.99927 0 6.75974 0 10.9792V24.2588C0 24.9355 0.0859291 25.6015 0.243466 26.2388C0.65879 27.9502 1.61833 29.4969 3.00036 30.6409L10.7501 37.8213C11.2334 38.2671 12.0158 37.918 12.005 37.261L11.9656 35.1933C11.9567 34.6384 12.5385 34.266 13.038 34.5095L16.7472 36.3176C20.5371 38.1668 24.9588 35.4099 24.9588 31.1869V17.5797C24.9588 15.4028 23.7164 13.4085 21.7562 12.4543L21.7544 12.4561ZM19.4003 27.9162C19.4003 29.3501 17.8983 30.2882 16.6076 29.6599L16.5879 29.6509C15.9219 29.3251 15.4977 28.6466 15.4977 27.9073V20.6104C15.4977 20.2327 15.4654 19.9463 15.3992 19.7583C15.3348 19.5686 15.2041 19.4289 15.009 19.3322C14.6151 19.1407 14.42 19.3734 14.42 20.0268V25.4869C14.42 26.9209 12.918 27.8607 11.6273 27.2306C11.2925 27.0677 11.0204 26.817 10.8324 26.5145C10.6427 26.2137 10.5388 25.8575 10.5388 25.4869V18.1919C10.5388 17.8249 10.5066 17.5438 10.4404 17.3487C10.3741 17.1536 10.2381 17.0068 10.0304 16.903C9.65091 16.7186 9.46115 16.9728 9.46115 17.6656V23.0684C9.46115 24.5023 7.95918 25.4404 6.66846 24.812L6.64876 24.8031C5.98102 24.4773 5.55854 23.7988 5.55854 23.0576V14.8407C5.55854 13.677 5.91479 12.8983 6.62549 12.5098C7.33799 12.1196 8.25457 12.1966 9.38059 12.7443C10.2506 13.1686 10.99 13.7862 11.5968 14.5954C12.0533 15.2023 12.7999 15.5943 13.5392 15.4099C13.6377 15.3867 13.7397 15.3688 13.8417 15.3616C14.3573 15.3169 14.9946 15.4798 15.7519 15.8521C16.9298 16.425 17.8303 17.2359 18.4586 18.2796C19.0852 19.3233 19.3985 20.546 19.3985 21.9459V27.9162H19.4003Z" fill="#3D88ED"/>
<path d="M0.243466 26.2388C0.0859291 25.7125 0 25.1611 0 24.5882V24.2589C0 24.9373 0.0859291 25.6015 0.243466 26.2388Z" fill="#3D88ED"/>
<path d="M27.3559 15.7608C27.3559 15.4153 27.4329 15.1289 27.5886 14.8997C27.7444 14.6706 27.9359 14.5005 28.1651 14.3878C28.3942 14.275 28.6448 14.2177 28.9152 14.2177C29.1855 14.2177 29.4361 14.275 29.6652 14.3878C29.8944 14.5005 30.0859 14.6706 30.2417 14.8997C30.3974 15.1289 30.4744 15.4153 30.4744 15.7608C30.4744 16.1063 30.3974 16.391 30.2417 16.6165C30.0859 16.8421 29.8944 17.014 29.6652 17.1285C29.4361 17.2449 29.1855 17.3022 28.9152 17.3022C28.6448 17.3022 28.3942 17.2449 28.1651 17.1285C27.9359 17.0122 27.7444 16.8421 27.5886 16.6165C27.4329 16.391 27.3559 16.1063 27.3559 15.7608ZM30.2435 19.7171V28.4461C30.2435 28.9957 29.7977 29.4432 29.2463 29.4432H28.5947C28.0451 29.4432 27.5976 28.9975 27.5976 28.4461V19.7171C27.5976 19.1676 28.0433 18.72 28.5947 18.72H29.2463C29.7959 18.72 30.2435 19.1658 30.2435 19.7171Z" fill="#102665"/>
<path d="M29.9284 24.0924C29.9284 24.9212 30.0269 25.6999 30.222 26.425V21.6971C30.0269 22.4329 29.9284 23.2366 29.9284 24.0906V24.0924Z" fill="#102665"/>
<path d="M43.7021 15.299V28.4479C43.7021 28.9975 43.2563 29.445 42.705 29.445H42.1249C41.6183 29.445 41.1923 29.0655 41.135 28.5625L41.0669 27.9753C40.8629 28.2922 40.6283 28.5607 40.3634 28.7791C40.0984 28.9975 39.8192 29.1747 39.522 29.3072C39.2266 29.4415 38.9151 29.5381 38.5911 29.5972C38.2671 29.6563 37.9431 29.6867 37.619 29.6867C36.8367 29.6867 36.1081 29.5596 35.435 29.3054C34.7619 29.0512 34.1801 28.6842 33.6896 28.2062C33.1991 27.7265 32.816 27.1411 32.5367 26.4501C32.2574 25.759 32.1196 24.9731 32.1196 24.0924C32.1196 23.2116 32.2574 22.3684 32.5313 21.6702C32.807 20.9721 33.1847 20.3885 33.6681 19.9194C34.1514 19.4504 34.7243 19.0977 35.3867 18.8614C36.049 18.6251 36.7723 18.507 37.5546 18.507C37.8374 18.507 38.1489 18.5446 38.4909 18.618C38.8328 18.6914 39.1675 18.8006 39.4951 18.9456C39.8228 19.0906 40.1253 19.2696 40.4046 19.4844C40.6838 19.6992 40.904 19.9445 41.0651 20.2202V15.2954C41.0651 14.7458 41.5109 14.2982 42.0623 14.2982H42.7032C43.2528 14.2982 43.7003 14.744 43.7003 15.2954L43.7021 15.299ZM37.7909 20.9757C37.3684 20.9757 36.9728 21.0473 36.6058 21.1923C36.2388 21.3373 35.9201 21.5449 35.648 21.8153C35.3759 22.0874 35.1611 22.415 35.0036 22.7981C34.8442 23.183 34.7655 23.6144 34.7655 24.0942C34.7655 24.5739 34.8442 24.9839 35.0036 25.3688C35.1629 25.7537 35.3777 26.0849 35.648 26.3623C35.9184 26.6398 36.2388 26.8564 36.6058 27.0068C36.9728 27.159 37.3666 27.2342 37.7909 27.2342C38.2152 27.2342 38.6036 27.1608 38.9814 27.0122C39.3591 26.8636 39.6885 26.6541 39.9696 26.3838C40.2524 26.1117 40.4762 25.7823 40.6409 25.3956C40.8074 25.0072 40.8897 24.5739 40.8897 24.0942C40.8897 23.6144 40.8074 23.2044 40.6409 22.8196C40.4744 22.4347 40.2506 22.1071 39.9696 21.8367C39.6867 21.5646 39.3573 21.3534 38.9814 21.203C38.6036 21.0508 38.208 20.9757 37.7909 20.9757Z" fill="#102665"/>
<path d="M57.0891 15.299V28.4479C57.0891 28.9975 56.6434 29.445 56.092 29.445H55.512C55.0053 29.445 54.5793 29.0655 54.522 28.5625L54.454 27.9753C54.2499 28.2922 54.0154 28.5607 53.7504 28.7791C53.4855 28.9975 53.2062 29.1747 52.909 29.3072C52.6136 29.4415 52.3022 29.5381 51.9781 29.5972C51.6541 29.6563 51.3301 29.6867 51.0061 29.6867C50.2237 29.6867 49.4951 29.5596 48.822 29.3054C48.1489 29.0512 47.5671 28.6842 47.0766 28.2062C46.5861 27.7265 46.203 27.1411 45.9237 26.4501C45.6444 25.759 45.5066 24.9731 45.5066 24.0924C45.5066 23.2116 45.6444 22.3684 45.9183 21.6702C46.1922 20.9721 46.5718 20.3885 47.0551 19.9194C47.5385 19.4504 48.1113 19.0977 48.7737 18.8614C49.4361 18.6251 50.1593 18.507 50.9416 18.507C51.2245 18.507 51.536 18.5446 51.8779 18.618C52.2198 18.6914 52.5546 18.8006 52.8822 18.9456C53.2098 19.0906 53.5123 19.2696 53.7916 19.4844C54.0709 19.6992 54.2911 19.9445 54.4522 20.2202V15.2954C54.4522 14.7458 54.8979 14.2982 55.4493 14.2982H56.0902C56.6398 14.2982 57.0873 14.744 57.0873 15.2954L57.0891 15.299ZM51.1779 20.9757C50.7554 20.9757 50.3598 21.0473 49.9928 21.1923C49.6258 21.3373 49.3072 21.5449 49.0351 21.8153C48.7629 22.0874 48.5481 22.415 48.3906 22.7981C48.2313 23.183 48.1525 23.6144 48.1525 24.0942C48.1525 24.5739 48.2313 24.9839 48.3906 25.3688C48.5499 25.7537 48.7647 26.0849 49.0351 26.3623C49.3054 26.6398 49.6258 26.8564 49.9928 27.0068C50.3598 27.1572 50.7536 27.2342 51.1779 27.2342C51.6022 27.2342 51.9907 27.1608 52.3684 27.0122C52.7461 26.8636 53.0755 26.6541 53.3566 26.3838C53.6394 26.1117 53.8632 25.7823 54.0279 25.3956C54.1944 25.0072 54.2767 24.5739 54.2767 24.0942C54.2767 23.6144 54.1944 23.2044 54.0279 22.8196C53.8614 22.4347 53.6376 22.1071 53.3566 21.8367C53.0737 21.5646 52.7443 21.3534 52.3684 21.203C51.9907 21.0508 51.595 20.9757 51.1779 20.9757Z" fill="#102665"/>
<path d="M64.4164 18.5535C65.2686 18.5535 66.0401 18.7003 66.7276 18.9921C67.415 19.2839 68.0022 19.6831 68.4873 20.1862C68.9743 20.691 69.3466 21.28 69.608 21.9567C69.8693 22.6334 70 23.353 70 24.1139C70 24.8747 69.8729 25.6051 69.6187 26.2818C69.3645 26.9585 68.9975 27.5492 68.5195 28.0523C68.0398 28.5571 67.4562 28.9545 66.7687 29.2463C66.0813 29.5381 65.3044 29.6849 64.4379 29.6849C63.5715 29.6849 62.7945 29.5381 62.1071 29.2463C61.4197 28.9545 60.8378 28.5553 60.3617 28.0523C59.8855 27.5492 59.5221 26.9585 59.2732 26.2818C59.0226 25.6051 58.8973 24.8818 58.8973 24.1139C58.8973 23.3459 59.0262 22.6334 59.284 21.9567C59.5417 21.28 59.9069 20.6892 60.3831 20.1862C60.8593 19.6831 61.4393 19.2839 62.1232 18.9921C62.8071 18.7003 63.5715 18.5535 64.4182 18.5535H64.4164ZM64.4379 20.9542C63.9581 20.9542 63.5392 21.0437 63.1794 21.2245C62.8196 21.4035 62.5188 21.6416 62.2754 21.9388C62.0319 22.2342 61.8493 22.5707 61.7258 22.9484C61.6023 23.3262 61.5414 23.7146 61.5414 24.1174C61.5414 24.5202 61.6005 24.9194 61.7204 25.2972C61.8403 25.6749 62.0212 26.0097 62.2646 26.3015C62.5081 26.5933 62.8106 26.826 63.174 26.9996C63.5375 27.1715 63.9581 27.2592 64.4379 27.2592C64.9177 27.2592 65.3384 27.1733 65.7018 26.9996C66.0652 26.8278 66.3677 26.5951 66.6112 26.3015C66.8547 26.0097 67.0373 25.6749 67.1608 25.2972C67.2843 24.9194 67.3452 24.5274 67.3452 24.1174C67.3452 23.7075 67.2772 23.3262 67.1393 22.9484C67.0015 22.5707 66.8081 22.2342 66.5575 21.9388C66.3069 21.6434 66.0025 21.4053 65.6427 21.2245C65.2829 21.0455 64.8819 20.9542 64.4379 20.9542Z" fill="#102665"/>
</g>
<defs>
<clipPath id="clip0_9817_38201">
<rect width="70" height="39.565" fill="white"/>
</clipPath>
</defs>
</svg>
