<svg width="70" height="41" viewBox="0 0 70 41" fill="none" xmlns="http://www.w3.org/2000/svg">
<g clip-path="url(#clip0_8877_49003)">
<path d="M28.9151 12.9364C28.3047 12.9364 27.7247 13.0707 27.193 13.3321C26.9316 13.4609 26.6899 13.6185 26.4697 13.8047C25.8127 12.7986 24.8854 11.9679 23.7612 11.4183L9.36447 4.40259C9.11384 4.27728 8.85784 4.16449 8.5929 4.07319C10.0662 3.39471 11.8313 3.32848 13.4765 4.13227L27.0175 10.7381C28.0451 11.2393 28.874 12.0234 29.4307 12.9704C29.2624 12.949 29.0906 12.9382 28.9151 12.9382V12.9364Z" fill="#8BB7F4"/>
<path d="M35.4851 13.2324V17.468C35.1987 17.5342 34.923 17.6147 34.6527 17.7114C33.9975 17.9441 33.3942 18.2628 32.8535 18.6656V14.9116C32.8535 12.3068 31.3695 9.92946 29.0279 8.78732L14.6276 1.76799C14.3788 1.64267 14.1228 1.53347 13.8596 1.44038C15.3329 0.7619 17.0981 0.695663 18.7433 1.49946L32.2825 8.10526C34.2445 9.05943 35.4869 11.0537 35.4869 13.2324H35.4851Z" fill="#8BB7F4"/>
<path d="M20 17.3477L13 14.8477L8.5 11.8477L4 13.8477V24.3477L8.5 31.8477L21 33.8477L20 17.3477Z" fill="white"/>
<path d="M21.7544 13.3721L8.21339 6.76455C4.41998 4.91529 0 7.67576 0 11.8952V25.1749C0 25.8516 0.0859291 26.5175 0.243466 27.1548C0.65879 28.8662 1.61833 30.413 3.00036 31.5569L10.7501 38.7373C11.2334 39.1831 12.0158 38.834 12.005 38.177L11.9656 36.1093C11.9567 35.5544 12.5385 35.182 13.038 35.4255L16.7472 37.2336C20.5371 39.0828 24.9588 36.326 24.9588 32.1029V18.4957C24.9588 16.3188 23.7164 14.3245 21.7562 13.3704L21.7544 13.3721ZM19.4003 28.8322C19.4003 30.2662 17.8983 31.2042 16.6076 30.5759L16.5879 30.5669C15.9219 30.2411 15.4977 29.5626 15.4977 28.8233V21.5265C15.4977 21.1487 15.4654 20.8623 15.3992 20.6743C15.3348 20.4846 15.2041 20.3449 15.009 20.2483C14.6151 20.0567 14.42 20.2894 14.42 20.9429V26.4029C14.42 27.8369 12.918 28.7767 11.6273 28.1466C11.2925 27.9837 11.0204 27.733 10.8324 27.4305C10.6427 27.1298 10.5388 26.7735 10.5388 26.4029V19.1079C10.5388 18.7409 10.5066 18.4599 10.4404 18.2647C10.3741 18.0696 10.2381 17.9228 10.0304 17.819C9.65091 17.6346 9.46115 17.8888 9.46115 18.5816V23.9844C9.46115 25.4183 7.95918 26.3564 6.66846 25.728L6.64876 25.7191C5.98102 25.3933 5.55854 24.7148 5.55854 23.9736V15.7567C5.55854 14.5931 5.91479 13.8143 6.62549 13.4258C7.33799 13.0356 8.25457 13.1126 9.38059 13.6604C10.2506 14.0846 10.99 14.7023 11.5968 15.5114C12.0533 16.1183 12.7999 16.5103 13.5392 16.326C13.6377 16.3027 13.7397 16.2848 13.8417 16.2776C14.3573 16.2329 14.9946 16.3958 15.7519 16.7681C16.9298 17.341 17.8303 18.152 18.4586 19.1956C19.0852 20.2393 19.3985 21.462 19.3985 22.8619V28.8322H19.4003Z" fill="#3D88ED"/>
<path d="M0.243466 27.1518C0.0859291 26.6255 0 26.0741 0 25.5013V25.1719C0 25.8504 0.0859291 26.5145 0.243466 27.1518Z" fill="#3D88ED"/>
<path d="M27.3558 16.676C27.3558 16.3305 27.4328 16.044 27.5886 15.8149C27.7443 15.5857 27.9359 15.4157 28.165 15.3029C28.3941 15.1901 28.6448 15.1328 28.9151 15.1328C29.1854 15.1328 29.436 15.1901 29.6652 15.3029C29.8943 15.4157 30.0859 15.5857 30.2416 15.8149C30.3974 16.044 30.4743 16.3305 30.4743 16.676C30.4743 17.0215 30.3974 17.3061 30.2416 17.5317C30.0859 17.7572 29.8943 17.9291 29.6652 18.0437C29.436 18.16 29.1854 18.2173 28.9151 18.2173C28.6448 18.2173 28.3941 18.16 28.165 18.0437C27.9359 17.9273 27.7443 17.7572 27.5886 17.5317C27.4328 17.3061 27.3558 17.0215 27.3558 16.676ZM30.2434 20.6323V29.3612C30.2434 29.9108 29.7977 30.3584 29.2463 30.3584H28.5946C28.0451 30.3584 27.5975 29.9126 27.5975 29.3612V20.6323C27.5975 20.0827 28.0433 19.6351 28.5946 19.6351H29.2463C29.7959 19.6351 30.2434 20.0809 30.2434 20.6323Z" fill="#F8FAFC"/>
<path d="M29.9285 25.0046C29.9285 25.8335 30.0269 26.6122 30.2221 27.3373V22.6094C30.0269 23.3451 29.9285 24.1489 29.9285 25.0029V25.0046Z" fill="#F8FAFC"/>
<path d="M43.7022 16.2117V29.3606C43.7022 29.9102 43.2564 30.3577 42.705 30.3577H42.125C41.6184 30.3577 41.1923 29.9782 41.135 29.4752L41.067 28.888C40.8629 29.2049 40.6284 29.4734 40.3635 29.6918C40.0985 29.9102 39.8192 30.0874 39.5221 30.2199C39.2267 30.3542 38.9152 30.4508 38.5912 30.5099C38.2671 30.569 37.9431 30.5994 37.6191 30.5994C36.8368 30.5994 36.1082 30.4723 35.4351 30.2181C34.762 29.9639 34.1801 29.5969 33.6896 29.1189C33.1991 28.6391 32.816 28.0538 32.5367 27.3627C32.2575 26.6717 32.1196 25.8858 32.1196 25.0051C32.1196 24.1243 32.2575 23.2811 32.5314 22.5829C32.8071 21.8848 33.1848 21.3012 33.6681 20.8321C34.1515 20.3631 34.7244 20.0104 35.3867 19.7741C36.0491 19.5378 36.7723 19.4197 37.5546 19.4197C37.8375 19.4197 38.149 19.4573 38.4909 19.5307C38.8328 19.6041 39.1676 19.7133 39.4952 19.8583C39.8228 20.0033 40.1254 20.1823 40.4046 20.3971C40.6839 20.6119 40.9041 20.8572 41.0652 21.1329V16.2081C41.0652 15.6585 41.511 15.2109 42.0623 15.2109H42.7032C43.2528 15.2109 43.7004 15.6567 43.7004 16.2081L43.7022 16.2117ZM37.791 21.8883C37.3685 21.8883 36.9728 21.96 36.6058 22.105C36.2389 22.25 35.9202 22.4576 35.6481 22.7279C35.376 23.0001 35.1612 23.3277 35.0036 23.7108C34.8443 24.0956 34.7655 24.5271 34.7655 25.0069C34.7655 25.4866 34.8443 25.8966 35.0036 26.2815C35.163 26.6664 35.3778 26.9975 35.6481 27.275C35.9184 27.5525 36.2389 27.7691 36.6058 27.9195C36.9728 28.0717 37.3667 28.1468 37.791 28.1468C38.2152 28.1468 38.6037 28.0735 38.9814 27.9249C39.3592 27.7763 39.6886 27.5668 39.9696 27.2965C40.2525 27.0244 40.4762 26.695 40.6409 26.3083C40.8074 25.9199 40.8898 25.4866 40.8898 25.0069C40.8898 24.5271 40.8074 24.1171 40.6409 23.7322C40.4744 23.3473 40.2507 23.0197 39.9696 22.7494C39.6868 22.4773 39.3574 22.2661 38.9814 22.1157C38.6037 21.9635 38.2081 21.8883 37.791 21.8883Z" fill="#F8FAFC"/>
<path d="M57.0891 16.2117V29.3606C57.0891 29.9102 56.6434 30.3577 56.092 30.3577H55.512C55.0053 30.3577 54.5793 29.9782 54.522 29.4752L54.454 28.888C54.2499 29.2049 54.0154 29.4734 53.7504 29.6918C53.4855 29.9102 53.2062 30.0874 52.909 30.2199C52.6136 30.3542 52.3022 30.4508 51.9781 30.5099C51.6541 30.569 51.3301 30.5994 51.0061 30.5994C50.2237 30.5994 49.4951 30.4723 48.822 30.2181C48.1489 29.9639 47.5671 29.5969 47.0766 29.1189C46.5861 28.6391 46.203 28.0538 45.9237 27.3627C45.6444 26.6717 45.5066 25.8858 45.5066 25.0051C45.5066 24.1243 45.6444 23.2811 45.9183 22.5829C46.1922 21.8848 46.5718 21.3012 47.0551 20.8321C47.5385 20.3631 48.1113 20.0104 48.7737 19.7741C49.4361 19.5378 50.1593 19.4197 50.9416 19.4197C51.2245 19.4197 51.536 19.4573 51.8779 19.5307C52.2198 19.6041 52.5546 19.7133 52.8822 19.8583C53.2098 20.0033 53.5123 20.1823 53.7916 20.3971C54.0709 20.6119 54.2911 20.8572 54.4522 21.1329V16.2081C54.4522 15.6585 54.8979 15.2109 55.4493 15.2109H56.0902C56.6398 15.2109 57.0873 15.6567 57.0873 16.2081L57.0891 16.2117ZM51.1779 21.8883C50.7554 21.8883 50.3598 21.96 49.9928 22.105C49.6258 22.25 49.3072 22.4576 49.0351 22.7279C48.7629 23.0001 48.5481 23.3277 48.3906 23.7108C48.2313 24.0956 48.1525 24.5271 48.1525 25.0069C48.1525 25.4866 48.2313 25.8966 48.3906 26.2815C48.5499 26.6664 48.7647 26.9975 49.0351 27.275C49.3054 27.5525 49.6258 27.7691 49.9928 27.9195C50.3598 28.0699 50.7536 28.1468 51.1779 28.1468C51.6022 28.1468 51.9907 28.0735 52.3684 27.9249C52.7461 27.7763 53.0755 27.5668 53.3566 27.2965C53.6394 27.0244 53.8632 26.695 54.0279 26.3083C54.1944 25.9199 54.2767 25.4866 54.2767 25.0069C54.2767 24.5271 54.1944 24.1171 54.0279 23.7322C53.8614 23.3473 53.6376 23.0197 53.3566 22.7494C53.0737 22.4773 52.7443 22.2661 52.3684 22.1157C51.9907 21.9635 51.595 21.8883 51.1779 21.8883Z" fill="#F8FAFC"/>
<path d="M64.4164 19.4688C65.2685 19.4688 66.0401 19.6155 66.7275 19.9073C67.4149 20.1991 68.0021 20.5984 68.4873 21.1014C68.9742 21.6062 69.3466 22.1952 69.6079 22.8719C69.8693 23.5486 70 24.2682 70 25.0291C70 25.7899 69.8729 26.5203 69.6187 27.197C69.3645 27.8737 68.9975 28.4645 68.5195 28.9675C68.0397 29.4723 67.4561 29.8698 66.7687 30.1616C66.0812 30.4534 65.3043 30.6002 64.4379 30.6002C63.5714 30.6002 62.7945 30.4534 62.107 30.1616C61.4196 29.8698 60.8378 29.4705 60.3616 28.9675C59.8854 28.4645 59.522 27.8737 59.2732 27.197C59.0225 26.5203 58.8972 25.7971 58.8972 25.0291C58.8972 24.2611 59.0261 23.5486 59.2839 22.8719C59.5417 22.1952 59.9069 21.6044 60.3831 21.1014C60.8593 20.5984 61.4393 20.1991 62.1231 19.9073C62.807 19.6155 63.5714 19.4688 64.4182 19.4688H64.4164ZM64.4379 21.8694C63.9581 21.8694 63.5392 21.9589 63.1794 22.1397C62.8195 22.3187 62.5188 22.5568 62.2753 22.854C62.0318 23.1494 61.8492 23.4859 61.7257 23.8637C61.6022 24.2414 61.5413 24.6299 61.5413 25.0327C61.5413 25.4355 61.6004 25.8347 61.7203 26.2124C61.8403 26.5901 62.0211 26.9249 62.2646 27.2167C62.508 27.5085 62.8106 27.7412 63.174 27.9149C63.5374 28.0867 63.9581 28.1744 64.4379 28.1744C64.9176 28.1744 65.3383 28.0885 65.7017 27.9149C66.0651 27.743 66.3677 27.5103 66.6111 27.2167C66.8546 26.9249 67.0372 26.5901 67.1607 26.2124C67.2843 25.8347 67.3451 25.4426 67.3451 25.0327C67.3451 24.6227 67.2771 24.2414 67.1393 23.8637C67.0014 23.4859 66.8081 23.1494 66.5574 22.854C66.3068 22.5586 66.0025 22.3205 65.6427 22.1397C65.2828 21.9607 64.8818 21.8694 64.4379 21.8694Z" fill="#F8FAFC"/>
</g>
<defs>
<clipPath id="clip0_8877_49003">
<rect width="70" height="39.565" fill="white" transform="translate(0 0.914062)"/>
</clipPath>
</defs>
</svg>
