<svg width="225" height="225" viewBox="0 0 48 49" fill="none" xmlns="http://www.w3.org/2000/svg">
<rect y="0.566406" width="48" height="48" rx="24" fill="#3D88ED"/>
<path fill-rule="evenodd" clip-rule="evenodd" d="M16.8569 10.2801C16.8569 9.49116 17.4965 8.85156 18.2855 8.85156H23.9998C24.7888 8.85156 25.4284 9.49116 25.4284 10.2801V15.9944C25.4284 16.7834 24.7888 17.423 23.9998 17.423C23.2108 17.423 22.5712 16.7834 22.5712 15.9944V11.7087H18.2855C17.4965 11.7087 16.8569 11.0691 16.8569 10.2801Z" fill="#F8FAFC"/>
<path fill-rule="evenodd" clip-rule="evenodd" d="M15.4283 17.4235C15.0494 17.4235 14.686 17.5741 14.4181 17.842C14.1502 18.1099 13.9997 18.4732 13.9997 18.8521V35.4032L17.2753 32.1277C17.5432 31.8598 17.9066 31.7093 18.2854 31.7093H32.5712C32.95 31.7093 33.3134 31.5588 33.5813 31.2908C33.8492 31.0229 33.9997 30.6596 33.9997 30.2807V18.8521C33.9997 18.4732 33.8492 18.1099 33.5813 17.842C33.3134 17.5741 32.95 17.4235 32.5712 17.4235H15.4283ZM12.3978 15.8217C13.2016 15.0179 14.2917 14.5664 15.4283 14.5664H32.5712C33.7078 14.5664 34.7979 15.0179 35.6016 15.8217C36.4053 16.6254 36.8569 17.7155 36.8569 18.8521V30.2807C36.8569 31.4173 36.4053 32.5074 35.6016 33.3112C34.7979 34.1149 33.7078 34.5664 32.5712 34.5664H18.8772L13.5813 39.8623C13.1727 40.2708 12.5583 40.3931 12.0245 40.172C11.4906 39.9508 11.1426 39.4299 11.1426 38.8521V18.8521C11.1426 17.7155 11.5941 16.6254 12.3978 15.8217Z" fill="#F8FAFC"/>
<path fill-rule="evenodd" clip-rule="evenodd" d="M8.28564 24.5653C8.28564 23.7763 8.92524 23.1367 9.71422 23.1367H12.5714C13.3603 23.1367 13.9999 23.7763 13.9999 24.5653C13.9999 25.3543 13.3603 25.9939 12.5714 25.9939H9.71422C8.92524 25.9939 8.28564 25.3543 8.28564 24.5653Z" fill="#F8FAFC"/>
<path fill-rule="evenodd" clip-rule="evenodd" d="M34 24.5653C34 23.7763 34.6396 23.1367 35.4286 23.1367H38.2857C39.0747 23.1367 39.7143 23.7763 39.7143 24.5653C39.7143 25.3543 39.0747 25.9939 38.2857 25.9939H35.4286C34.6396 25.9939 34 25.3543 34 24.5653Z" fill="#F8FAFC"/>
<path d="M28.5957 29.5645H25.0547L21.4043 22.5234H21.3428C21.3656 22.7376 21.3861 22.9951 21.4043 23.2959C21.4225 23.5967 21.4385 23.9043 21.4521 24.2188C21.4658 24.5286 21.4727 24.8089 21.4727 25.0596V29.5645H19.0801V19.5703H22.6074L26.2441 26.5156H26.2852C26.2715 26.2969 26.2578 26.0439 26.2441 25.7568C26.2305 25.4652 26.2168 25.1712 26.2031 24.875C26.194 24.5788 26.1895 24.3167 26.1895 24.0889V19.5703H28.5957V29.5645Z" fill="white"/>
</svg>
