<svg width="225" height="225" viewBox="0 0 32 32" fill="none" xmlns="http://www.w3.org/2000/svg">
<rect width="32" height="32" rx="16" fill="#3D88ED"/>
<path fill-rule="evenodd" clip-rule="evenodd" d="M11.2378 6.47777C11.2378 5.95179 11.6642 5.52539 12.1902 5.52539H15.9997C16.5257 5.52539 16.9521 5.95179 16.9521 6.47777V10.2873C16.9521 10.8133 16.5257 11.2397 15.9997 11.2397C15.4737 11.2397 15.0473 10.8133 15.0473 10.2873V7.43015H12.1902C11.6642 7.43015 11.2378 7.00376 11.2378 6.47777Z" fill="#F8FAFC"/>
<path fill-rule="evenodd" clip-rule="evenodd" d="M10.2854 11.2387C10.0328 11.2387 9.79054 11.3391 9.61193 11.5177C9.43332 11.6963 9.33298 11.9385 9.33298 12.1911V23.2252L11.5167 21.0415C11.6953 20.8629 11.9375 20.7626 12.1901 20.7626H21.7139C21.9665 20.7626 22.2088 20.6622 22.3874 20.4836C22.566 20.305 22.6663 20.0628 22.6663 19.8102V12.1911C22.6663 11.9385 22.566 11.6963 22.3874 11.5177C22.2088 11.3391 21.9665 11.2387 21.7139 11.2387H10.2854ZM8.26506 10.1708C8.80088 9.635 9.5276 9.33398 10.2854 9.33398H21.7139C22.4717 9.33398 23.1984 9.635 23.7342 10.1708C24.2701 10.7066 24.5711 11.4334 24.5711 12.1911V19.8102C24.5711 20.5679 24.2701 21.2947 23.7342 21.8305C23.1984 22.3663 22.4717 22.6673 21.7139 22.6673H12.5846L9.05404 26.1979C8.78166 26.4703 8.37202 26.5518 8.01614 26.4043C7.66026 26.2569 7.42822 25.9097 7.42822 25.5245V12.1911C7.42822 11.4334 7.72924 10.7066 8.26506 10.1708Z" fill="#F8FAFC"/>
<path fill-rule="evenodd" clip-rule="evenodd" d="M5.52344 16.0012C5.52344 15.4752 5.94983 15.0488 6.47582 15.0488H8.38058C8.90657 15.0488 9.33296 15.4752 9.33296 16.0012C9.33296 16.5272 8.90657 16.9536 8.38058 16.9536H6.47582C5.94983 16.9536 5.52344 16.5272 5.52344 16.0012Z" fill="#F8FAFC"/>
<path fill-rule="evenodd" clip-rule="evenodd" d="M22.6665 16.0012C22.6665 15.4752 23.0929 15.0488 23.6189 15.0488H25.5236C26.0496 15.0488 26.476 15.4752 26.476 16.0012C26.476 16.5272 26.0496 16.9536 25.5236 16.9536H23.6189C23.0929 16.9536 22.6665 16.5272 22.6665 16.0012Z" fill="#F8FAFC"/>
<path d="M18.4098 17.3112C18.4098 17.6727 18.3187 18.0161 18.1364 18.3411C17.9541 18.6632 17.67 18.9245 17.2842 19.125C16.9014 19.3255 16.4061 19.4258 15.7985 19.4258C15.4947 19.4258 15.2273 19.4121 14.9964 19.3848C14.7686 19.3574 14.5559 19.3134 14.3584 19.2526C14.1609 19.1888 13.9558 19.1068 13.7432 19.0065V17.4023C14.1047 17.5846 14.4693 17.7244 14.8369 17.8216C15.2045 17.9158 15.5372 17.9629 15.835 17.9629C16.0142 17.9629 16.16 17.9416 16.2725 17.8991C16.3879 17.8566 16.473 17.7988 16.5277 17.7259C16.5824 17.65 16.6097 17.5634 16.6097 17.4661C16.6097 17.3507 16.5687 17.2535 16.4867 17.1745C16.4077 17.0924 16.2801 17.0074 16.1038 16.9193C15.9276 16.8312 15.6952 16.7218 15.4066 16.5911C15.1605 16.4757 14.9372 16.3572 14.7367 16.2357C14.5392 16.1141 14.369 15.9759 14.2262 15.821C14.0865 15.663 13.9786 15.4792 13.9027 15.2695C13.8267 15.0599 13.7887 14.8123 13.7887 14.5267C13.7887 14.0983 13.8936 13.7398 14.1032 13.4512C14.3159 13.1595 14.6106 12.9408 14.9873 12.7949C15.3671 12.6491 15.8046 12.5762 16.2998 12.5762C16.7343 12.5762 17.1247 12.6248 17.471 12.722C17.8204 12.8192 18.1334 12.9301 18.4098 13.0547L17.8584 14.4447C17.5728 14.314 17.2918 14.2107 17.0153 14.1348C16.7388 14.0558 16.4821 14.0163 16.2451 14.0163C16.0902 14.0163 15.9626 14.036 15.8623 14.0755C15.7651 14.112 15.6922 14.1621 15.6436 14.2259C15.598 14.2897 15.5752 14.3626 15.5752 14.4447C15.5752 14.548 15.6147 14.6406 15.6937 14.7227C15.7757 14.8047 15.9109 14.8943 16.0993 14.9915C16.2907 15.0857 16.5505 15.2088 16.8786 15.3607C17.2037 15.5065 17.4801 15.6645 17.708 15.8346C17.9359 16.0017 18.109 16.2038 18.2275 16.4408C18.3491 16.6747 18.4098 16.9648 18.4098 17.3112Z" fill="white"/>
</svg>
